<svg width="146" height="100" viewBox="0 0 146 100" fill="none" xmlns="http://www.w3.org/2000/svg">
<g clip-path="url(#clip0_258_4)">
<path d="M23.9453 10.8633C25.2852 10.8633 25.9551 11.5332 25.9551 12.873V16.9951C25.9551 18.3623 25.2852 19.0459 23.9453 19.0459H16.0908V21.5684H21.792C23.1182 21.5684 23.7949 22.2383 23.8223 23.5781V27.7002C23.8223 29.04 23.1455 29.71 21.792 29.71H16.0908V36.9902C16.0908 38.3301 15.4209 39 14.0811 39H9.28223C7.94238 39 7.27246 38.3301 7.27246 36.9902V12.873C7.27246 11.5332 7.94238 10.8633 9.28223 10.8633H23.9453ZM40.9668 39.5127H40.9258C37.2891 39.5127 34.377 38.5078 32.1895 36.498C29.9883 34.4883 28.8877 31.8018 28.8877 28.4385V21.4658C28.8877 18.1025 29.9883 15.416 32.1895 13.4062C34.377 11.3965 37.2891 10.3916 40.9258 10.3916C44.5352 10.3916 47.4404 11.3965 49.6416 13.4062C51.8428 15.416 52.9434 18.1025 52.9434 21.4658V28.4385C52.9434 31.8018 51.8496 34.4883 49.6621 36.498C47.4746 38.5078 44.5762 39.5127 40.9668 39.5127ZM40.9258 31.3096L40.9053 31.3506C41.876 31.3506 42.6416 31.0771 43.2021 30.5303C43.7764 29.9697 44.0635 29.2314 44.0635 28.3154V21.5889C44.0635 20.6592 43.7764 19.9277 43.2021 19.3945C42.6279 18.8613 41.8691 18.5947 40.9258 18.5947C39.9414 18.5947 39.1553 18.8613 38.5674 19.3945C37.9795 19.9277 37.6855 20.6592 37.6855 21.5889V28.3154C37.6855 29.2451 37.9795 29.9766 38.5674 30.5098C39.1553 31.043 39.9414 31.3096 40.9258 31.3096ZM77.9834 22.9219V22.9424C79.3506 22.9424 80.0342 23.6123 80.0342 24.9521V29.1152C80.0342 32.2598 78.9609 34.7822 76.8145 36.6826C74.668 38.583 71.8174 39.5332 68.2627 39.5332C64.667 39.5332 61.7959 38.5488 59.6494 36.5801C57.4893 34.6113 56.4092 31.9727 56.4092 28.6641V21.2812C56.4092 17.9727 57.4893 15.334 59.6494 13.3652C61.7959 11.3965 64.667 10.4121 68.2627 10.4121C71.5303 10.4121 74.1963 11.1982 76.2607 12.7705C78.3389 14.3564 79.5693 16.5371 79.9521 19.3125C80.0342 19.9004 79.9111 20.3584 79.583 20.6865C79.2549 21.0146 78.7969 21.1787 78.209 21.1787H72.959C72.4121 21.1787 71.9951 21.0557 71.708 20.8096C71.4209 20.5635 71.1543 20.1875 70.9082 19.6816C70.3887 18.957 69.5068 18.5947 68.2627 18.5947C67.3467 18.5947 66.6152 18.8408 66.0684 19.333C65.5078 19.8252 65.2275 20.5088 65.2275 21.3838V28.9922C65.2275 29.8398 65.5078 30.5234 66.0684 31.043C66.6152 31.5488 67.3467 31.8018 68.2627 31.8018C69.042 31.8018 69.6914 31.624 70.2109 31.2686C70.7305 30.9268 71.0381 30.4551 71.1338 29.8535H70.5801C69.2402 29.8535 68.5703 29.1631 68.5703 27.7822V24.9316C68.5703 23.5918 69.2402 22.9219 70.5801 22.9219H77.9834ZM104.746 39.5127H104.705C101.068 39.5127 98.1562 38.5078 95.9688 36.498C93.7676 34.4883 92.667 31.8018 92.667 28.4385V21.4658C92.667 18.1025 93.7676 15.416 95.9688 13.4062C98.1562 11.3965 101.068 10.3916 104.705 10.3916C108.314 10.3916 111.22 11.3965 113.421 13.4062C115.622 15.416 116.723 18.1025 116.723 21.4658V28.4385C116.723 31.8018 115.629 34.4883 113.441 36.498C111.254 38.5078 108.355 39.5127 104.746 39.5127ZM104.705 31.3096L104.685 31.3506C105.655 31.3506 106.421 31.0771 106.981 30.5303C107.556 29.9697 107.843 29.2314 107.843 28.3154V21.5889C107.843 20.6592 107.556 19.9277 106.981 19.3945C106.407 18.8613 105.648 18.5947 104.705 18.5947C103.721 18.5947 102.935 18.8613 102.347 19.3945C101.759 19.9277 101.465 20.6592 101.465 21.5889V28.3154C101.465 29.2451 101.759 29.9766 102.347 30.5098C102.935 31.043 103.721 31.3096 104.705 31.3096ZM137.6 10.8633C138.939 10.8633 139.609 11.5332 139.609 12.873V16.9951C139.609 18.3623 138.939 19.0459 137.6 19.0459H129.745V21.5684H135.446C136.772 21.5684 137.449 22.2383 137.477 23.5781V27.7002C137.477 29.04 136.8 29.71 135.446 29.71H129.745V36.9902C129.745 38.3301 129.075 39 127.735 39H122.937C121.597 39 120.927 38.3301 120.927 36.9902V12.873C120.927 11.5332 121.597 10.8633 122.937 10.8633H137.6Z" fill="white"/>
<path d="M16.9521 90V90.0615C15.1064 90.0615 13.999 89.1592 13.6299 87.3545L6.55469 51.1787C6.34961 50.1328 6.49316 49.3125 6.98535 48.7178C7.47754 48.123 8.26709 47.8257 9.354 47.8257H17.7212C19.5874 47.8257 20.6333 48.769 20.8589 50.6558L22.7046 71.5122H23.5044L26.6729 50.5942C27.042 48.7485 28.1289 47.8257 29.9336 47.8257H36.9473C38.752 47.8257 39.8389 48.7485 40.208 50.5942L43.4072 71.5122H44.2378L45.9912 50.6558C46.2168 48.769 47.2729 47.8257 49.1597 47.8257H57.0962C58.1421 47.8257 58.9111 48.1128 59.4033 48.687C59.8955 49.2817 60.0391 50.0918 59.834 51.1172L52.7896 87.293C52.4614 89.0977 51.354 90 49.4673 90H39.0698C37.2241 90 36.1577 89.0771 35.8706 87.2314L33.5942 70.7124H32.7637L30.5796 87.2314C30.2925 89.0771 29.1953 90 27.2881 90H16.9521ZM98.563 86.5854H98.5322C99.127 88.8618 98.2656 90 95.9482 90H87.2734C85.6943 90 84.6997 89.1797 84.2896 87.5391L83.7358 84.5859H74.4766L73.9844 87.5391C73.6152 89.1797 72.6206 90 71.0005 90H62.7563C60.5005 90 59.6392 88.8618 60.1724 86.5854L69.3086 50.4404C69.7188 48.6768 70.8569 47.7949 72.7231 47.7949H86.0737C87.8784 47.7949 89.0166 48.6768 89.4883 50.4404L98.563 86.5854ZM76.6299 72.6812H81.5825L79.5215 61.1455H78.6909L76.6299 72.6812ZM132.862 76.5264L138.646 86.4009C139.24 87.4468 139.363 88.3081 139.015 88.9849C138.666 89.6616 137.917 90 136.769 90H127.694C125.992 90 124.751 89.2002 123.972 87.6006L119.881 78.9873H117.051V86.9854C117.051 88.9951 116.046 90 114.036 90H106.838C104.828 90 103.823 88.9951 103.823 86.9854V50.8096C103.823 48.7998 104.828 47.7949 106.838 47.7949H124.034C128.668 47.7949 132.391 49.1792 135.2 51.9478C138.01 54.7163 139.415 58.4385 139.415 63.1143C139.415 69.1846 137.23 73.6553 132.862 76.5264ZM117.051 60.0688V66.7134H122.588C124.987 66.7134 126.187 65.606 126.187 63.3911C126.187 61.1763 124.987 60.0688 122.588 60.0688H117.051Z" fill="#00FF8F"/>
</g>
<defs>
<clipPath id="clip0_258_4">
<rect width="146" height="100" fill="white"/>
</clipPath>
</defs>
</svg>
